<svg width="512" height="403" viewBox="0 0 512 403" fill="none" xmlns="http://www.w3.org/2000/svg">
<path d="M49.106 124.729C55.578 129.296 75.087 142.86 107.634 165.414C140.182 187.968 165.116 205.334 182.437 217.513C184.34 218.848 188.383 221.75 194.568 226.223C200.754 230.699 205.894 234.316 209.984 237.075C214.077 239.833 219.025 242.927 224.833 246.352C230.639 249.774 236.112 252.348 241.251 254.052C246.391 255.77 251.149 256.621 255.526 256.621H255.813H256.101C260.478 256.621 265.238 255.769 270.378 254.052C275.515 252.348 280.993 249.771 286.794 246.352C292.598 242.923 297.546 239.832 301.639 237.075C305.732 234.316 310.868 230.699 317.056 226.223C323.24 221.746 327.288 218.848 329.191 217.513C346.699 205.334 391.242 174.403 462.806 124.723C476.7 115.02 488.308 103.312 497.633 89.6069C506.965 75.9079 511.626 61.5369 511.626 46.5019C511.626 33.9379 507.103 23.1829 498.061 14.2379C489.02 5.29095 478.312 0.819946 465.944 0.819946H45.679C31.024 0.819946 19.746 5.76795 11.847 15.6639C3.949 25.5619 0 37.9339 0 52.7789C0 64.7699 5.236 77.764 15.703 91.753C26.169 105.743 37.307 116.736 49.106 124.729Z" fill="black"/>
<path d="M483.072 155.275C420.648 197.526 373.248 230.362 340.895 253.776C330.046 261.767 321.245 268.005 314.486 272.475C307.727 276.948 298.738 281.516 287.506 286.177C276.278 290.845 265.814 293.172 256.105 293.172H255.814H255.527C245.82 293.172 235.35 290.845 224.122 286.177C212.894 281.516 203.899 276.948 197.142 272.475C190.387 268.005 181.583 261.767 170.735 253.776C145.038 234.934 97.74 202.096 28.839 155.275C17.987 148.047 8.375 139.762 0 130.437V357.122C0 369.692 4.471 380.441 13.418 389.387C22.363 398.336 33.119 402.809 45.682 402.809H465.948C478.508 402.809 489.263 398.336 498.209 389.387C507.158 380.438 511.627 369.693 511.627 357.122V130.437C503.441 139.569 493.927 147.854 483.072 155.275Z" fill="black"/>
</svg>
